<?xml version="1.0" standalone="no"?>
<!DOCTYPE svg PUBLIC "-//W3C//DTD SVG 20010904//EN"
 "http://www.w3.org/TR/2001/REC-SVG-20010904/DTD/svg10.dtd">
<svg version="1.0" xmlns="http://www.w3.org/2000/svg"
 width="512.000000pt" height="512.000000pt" viewBox="0 0 512.000000 512.000000"
 preserveAspectRatio="xMidYMid meet">

<g transform="translate(0.000000,512.000000) scale(0.100000,-0.100000)"
fill="#000000" stroke="none">
<path d="M2345 5110 c-1101 -103 -2008 -879 -2269 -1942 -54 -220 -69 -353
-69 -608 0 -255 15 -388 69 -608 227 -922 954 -1649 1876 -1876 220 -54 353
-69 608 -69 255 0 388 15 608 69 922 227 1649 954 1876 1876 54 220 69 353 69
608 0 255 -15 388 -69 608 -226 922 -954 1649 -1876 1876 -245 60 -590 88
-823 66z m565 -135 c913 -140 1660 -760 1958 -1625 92 -269 127 -482 127 -790
0 -243 -13 -358 -62 -565 -209 -888 -920 -1599 -1808 -1808 -207 -49 -322 -62
-565 -62 -302 0 -502 31 -765 119 -737 247 -1304 814 -1551 1551 -88 263 -119
463 -119 765 0 302 31 502 119 765 247 737 814 1304 1551 1551 181 60 324 90
575 118 79 9 441 -4 540 -19z"/>
<path d="M2360 4524 c-14 -2 -59 -9 -100 -15 -558 -80 -1084 -433 -1385 -930
-255 -420 -343 -922 -249 -1414 97 -505 408 -969 846 -1264 168 -112 428 -231
506 -231 47 0 92 38 92 79 2 68 -1 355 -3 357 -1 1 -25 -2 -52 -7 -73 -14
-242 -12 -302 5 -77 21 -141 56 -200 110 -43 39 -64 71 -112 170 -74 150 -110
199 -201 266 -39 29 -75 61 -81 72 -29 55 86 70 185 25 70 -32 127 -85 193
-179 104 -149 185 -199 330 -206 74 -3 105 0 162 17 38 12 73 26 76 31 3 5 13
35 20 65 18 67 55 143 84 169 12 11 21 22 21 26 0 4 -35 13 -77 19 -281 44
-491 148 -627 311 -181 218 -243 683 -127 960 23 55 63 121 129 210 11 15 11
27 -2 72 -34 121 -28 263 15 404 l20 64 47 0 c95 0 280 -72 431 -167 l63 -41
52 14 c131 35 262 49 451 48 187 0 289 -12 431 -48 l51 -13 69 44 c147 95 324
163 425 163 l46 0 17 -57 c41 -143 48 -285 20 -402 l-16 -67 41 -55 c130 -172
177 -364 152 -619 -28 -275 -103 -447 -260 -592 -124 -115 -299 -189 -528
-225 l-102 -16 29 -38 c17 -20 40 -58 51 -83 42 -96 49 -163 49 -509 l0 -329
29 -29 c39 -39 76 -38 193 7 451 172 843 534 1058 979 139 287 200 559 200
885 0 183 -17 320 -59 485 -90 357 -258 652 -515 909 -296 296 -633 472 -1061
553 -76 14 -466 27 -525 17z m200 -467 l0 -354 -117 -6 c-65 -4 -158 -14 -208
-22 -167 -29 -161 -29 -193 -6 -64 45 -234 122 -323 146 -148 39 -265 28 -302
-29 -26 -39 -67 -185 -79 -282 -9 -73 -9 -115 1 -194 l12 -100 -32 -46 c-44
-64 -103 -196 -125 -279 -16 -57 -19 -107 -19 -270 0 -203 6 -252 46 -384 90
-300 325 -518 663 -616 50 -14 92 -27 94 -30 2 -2 -1 -20 -8 -40 -15 -45 -39
-55 -130 -55 -108 0 -156 31 -248 158 -105 146 -199 215 -335 247 -73 17 -158
8 -210 -22 -47 -27 -81 -100 -72 -155 6 -35 19 -54 69 -103 34 -33 77 -72 97
-87 44 -33 98 -112 134 -198 96 -229 298 -361 557 -364 l98 -1 0 -78 c0 -92
13 -90 -145 -20 -489 219 -867 656 -1014 1174 -54 191 -66 284 -65 504 0 212
12 303 59 480 206 760 881 1319 1660 1375 55 4 108 8 118 8 16 2 17 -21 17
-351z"/>
</g>
</svg>
