<?xml version="1.0" standalone="no"?>
<!DOCTYPE svg PUBLIC "-//W3C//DTD SVG 20010904//EN"
 "http://www.w3.org/TR/2001/REC-SVG-20010904/DTD/svg10.dtd">
<svg version="1.0" xmlns="http://www.w3.org/2000/svg"
 width="512.000000pt" height="512.000000pt" viewBox="0 0 512.000000 512.000000"
 preserveAspectRatio="xMidYMid meet">

<g transform="translate(0.000000,512.000000) scale(0.100000,-0.100000)"
fill="#000000" stroke="none">
<path d="M1080 4575 c-8 -2 -49 -9 -90 -15 -232 -38 -459 -157 -636 -334 -169
-170 -279 -370 -330 -606 -18 -80 -19 -146 -19 -1055 0 -1050 -1 -1020 56
-1197 58 -179 155 -335 293 -474 139 -138 295 -235 474 -293 181 -59 99 -56
1737 -56 1435 0 1514 1 1595 19 482 105 845 476 941 961 21 103 21 1967 0
2070 -95 479 -440 838 -921 958 -84 21 -94 21 -1585 23 -825 1 -1507 1 -1515
-1z m3030 -417 c163 -49 276 -114 375 -215 71 -70 146 -184 175 -261 58 -154
55 -96 55 -1122 0 -1026 3 -968 -55 -1122 -66 -177 -261 -372 -438 -438 -157
-59 -36 -55 -1617 -58 -1552 -3 -1532 -4 -1676 47 -202 72 -398 259 -469 449
-58 154 -55 96 -55 1122 0 1026 -3 968 55 1122 70 186 263 374 458 445 144 53
89 51 1667 50 1341 -2 1475 -4 1525 -19z"/>
<path d="M4095 3310 c-16 -6 -257 -184 -535 -397 -278 -212 -531 -403 -563
-424 -179 -117 -411 -155 -624 -104 -155 38 -213 76 -763 504 -367 286 -526
404 -555 412 -85 23 -174 -10 -223 -84 -35 -52 -38 -153 -7 -205 21 -36 968
-779 1102 -866 180 -116 420 -186 638 -186 238 0 513 89 703 227 21 16 264
201 540 412 339 259 509 395 524 420 18 28 23 51 23 101 0 77 -26 127 -85 166
-42 28 -126 39 -175 24z"/>
</g>
</svg>
