<?xml version="1.0" standalone="no"?>
<!DOCTYPE svg PUBLIC "-//W3C//DTD SVG 20010904//EN"
 "http://www.w3.org/TR/2001/REC-SVG-20010904/DTD/svg10.dtd">
<svg version="1.0" xmlns="http://www.w3.org/2000/svg"
 width="512.000000pt" height="512.000000pt" viewBox="0 0 512.000000 512.000000"
 preserveAspectRatio="xMidYMid meet">

<g transform="translate(0.000000,512.000000) scale(0.100000,-0.100000)"
fill="#000000" stroke="none">
<path d="M1163 5110 c-83 -15 -206 -65 -280 -112 -124 -82 -312 -264 -455
-443 -135 -169 -265 -413 -331 -620 -209 -654 -63 -1427 411 -2168 383 -601
975 -1138 1594 -1448 935 -469 1790 -418 2494 148 110 89 303 284 372 378 97
130 145 279 145 445 0 167 -43 302 -137 434 -48 67 -446 458 -524 515 -117 84
-249 125 -412 125 -209 0 -372 -66 -521 -214 -92 -90 -91 -89 -230 -388 -48
-104 -95 -155 -188 -206 -108 -58 -206 -69 -333 -37 -202 52 -426 209 -723
506 -469 469 -626 807 -495 1064 52 102 90 136 229 203 250 119 270 131 321
174 172 147 261 340 262 569 0 170 -44 308 -138 431 -64 84 -444 471 -503 512
-78 55 -147 88 -233 112 -84 24 -247 34 -325 20z m271 -425 c45 -21 94 -66
261 -238 244 -252 270 -291 270 -417 0 -66 -5 -85 -33 -143 -43 -86 -88 -124
-220 -182 -186 -82 -291 -144 -360 -213 -164 -166 -245 -357 -244 -577 0 -351
187 -696 607 -1124 409 -416 696 -608 1004 -671 206 -42 402 -13 578 85 88 50
207 148 253 209 38 51 127 223 170 328 38 93 86 148 164 188 62 31 77 35 150
35 129 0 157 -18 392 -245 109 -106 214 -214 231 -239 18 -25 40 -75 49 -110
32 -129 -4 -231 -137 -379 -275 -305 -589 -489 -961 -564 -156 -31 -448 -31
-618 0 -299 55 -596 170 -899 351 -633 376 -1236 1051 -1504 1681 -138 325
-195 613 -184 920 14 364 132 670 376 972 68 85 254 266 314 306 102 68 232
79 341 27z"/>
<path d="M2845 5102 c-49 -24 -79 -55 -100 -104 -43 -105 14 -235 117 -266 18
-6 78 -16 133 -22 186 -22 441 -98 610 -183 603 -301 1012 -866 1101 -1521 18
-135 28 -167 62 -208 82 -97 243 -86 314 20 37 55 41 96 23 236 -117 919 -818
1726 -1725 1986 -130 38 -291 67 -407 75 -74 5 -94 3 -128 -13z"/>
<path d="M2857 4305 c-138 -49 -171 -243 -58 -338 33 -28 41 -30 211 -70 454
-106 803 -473 900 -945 26 -130 55 -174 132 -207 107 -44 238 23 269 137 22
83 -46 348 -140 542 -219 453 -653 788 -1140 880 -100 19 -124 19 -174 1z"/>
<path d="M2867 3490 c-111 -35 -168 -168 -118 -275 24 -53 52 -77 136 -116 96
-45 161 -112 212 -219 44 -93 69 -121 125 -145 71 -29 153 -12 211 43 44 41
60 81 60 144 0 48 -7 72 -53 165 -48 97 -64 119 -154 208 -86 86 -115 108
-197 149 -101 51 -166 64 -222 46z"/>
</g>
</svg>
